# xmcd
#
# Track frame offsets:
#	150
#	13234
#	25549
#	34671
#	51448
#	66218
#	77525
#	94674
#	104299
#	116766
# Disc length: 1741 seconds
# Revision: 1
# Processed by: cddbd v1.5.2PL0 Copyright (c) Steve Scherf et al.
#
# Submitted via: libkcddb 0.21
#
DISCID=7806cb0a
DTITLE=Demo 2006 - Delta B
DYEAR=1900
DGENRE=
TTITLE0=Unchain my Heart
TTITLE1=Thrill Is Gone
TTITLE2=I Could Cry
TTITLE3=Roadhouse Blues
TTITLE4=Long Train Running
TTITLE5=Aint' no Sunshine
TTITLE6=Sweet Home Chicago
TTITLE7=Stomp
TTITLE8=Destination Mississippi
TTITLE9=Fuckin' Hairy Legs Blues
EXTD=
EXTT0=
EXTT1=
EXTT2=
EXTT3=
EXTT4=
EXTT5=
EXTT6=
EXTT7=
EXTT8=
EXTT9=
PLAYORDER=
